<svg xmlns="http://www.w3.org/2000/svg" width="58" height="58" viewBox="0 0 58 58"><g><g><path fill="#fff" d="M57.153 7.655l-2.744 2.746-.294.295v47.307H-.005V3.838h47.303L50.32.815A2.89 2.89 0 0 1 54.4.814l2.754 2.758a2.893 2.893 0 0 1 0 4.083zM18.202 39.8l4.279-1.169-3.112-3.114zm33.474-29.4l-4.1-4.102-1.367 1.367 4.1 4.103zm-6.833-1.367L20.242 33.655l4.1 4.103 24.6-24.621zm5.9 5.04l-.432.432-25.466 25.486-7.518 2.054-1.185 1.186a.964.964 0 0 1-1.366 0 .967.967 0 0 1 0-1.368l1.184-1.186 2.05-7.524.182-.182L45.366 5.773H1.928v50.296h50.254V12.63zm5.043-9.133l-2.754-2.756a.954.954 0 0 0-1.346 0L48.942 4.93l4.1 4.103 2.744-2.745a.955.955 0 0 0 0-1.348z"/></g></g></svg>