<svg xmlns="http://www.w3.org/2000/svg" width="51" height="65" viewBox="0 0 51 65"><g><g><path fill="#fff" d="M5.65 6.4a.873.873 0 0 1-.867-.88c0-.487.388-.88.867-.88h43.48c.48 0 .868.393.868.88s-.388.88-.867.88zM51 9.997v54.123c0 .487-.388.88-.868.88H5.354C2.406 65 0 62.565 0 59.565V5.435C0 2.44 2.398 0 5.354 0h44.771c.48 0 .868.393.868.88 0 .48-.388.874-.86.874H5.353c-1.996 0-3.626 1.654-3.626 3.68 0 2.027 1.63 3.681 3.626 3.681h44.778c.48 0 .868.393.868.88zm-1.735.873H5.355a5.278 5.278 0 0 1-3.627-1.44v50.136c0 2.026 1.63 3.68 3.626 3.68h43.91zM10.657 25.535h30.447c.42 0 .762.347.762.774 0 .428-.341.774-.762.774H10.657a.768.768 0 0 1-.762-.774c0-.427.341-.774.762-.774zm0 6.19h30.447c.42 0 .762.347.762.774 0 .428-.341.774-.762.774H10.657a.767.767 0 0 1-.762-.774c0-.427.341-.773.762-.773zm0 6.191h30.447c.42 0 .762.347.762.774 0 .428-.341.774-.762.774H10.657a.767.767 0 0 1-.762-.774c0-.427.341-.774.762-.774zm0 6.19h30.447c.42 0 .762.347.762.774 0 .428-.341.774-.762.774H10.657a.768.768 0 0 1-.762-.774c0-.427.341-.773.762-.773z"/></g></g></svg>