<svg xmlns="http://www.w3.org/2000/svg" width="60" height="60" viewBox="0 0 60 60"><g><g><path fill="#fff" d="M60 4c0-2.206-1.794-4-4-4s-4 1.794-4 4c0 .74.216 1.423.566 2.018L42.019 16.567A3.952 3.952 0 0 0 40 15.999c-.737 0-1.42.215-2.014.565l-4.55-4.55A3.95 3.95 0 0 0 34 10c0-2.206-1.794-4-4-4s-4 1.794-4 4c0 .471.097.918.247 1.339L6.601 30.984A3.972 3.972 0 0 0 4 30c-2.206 0-4 1.794-4 4 0 2.205 1.794 4 4 4s4-1.795 4-4c0-.473-.097-.918-.247-1.34l19.646-19.645a3.97 3.97 0 0 0 2.6.984c.743 0 1.429-.216 2.025-.568l4.545 4.544a3.966 3.966 0 0 0-.57 2.024c0 2.207 1.795 4 4 4 2.207 0 4-1.793 4-4 0-.74-.215-1.423-.565-2.019L53.98 7.432A3.958 3.958 0 0 0 56 8c2.206 0 4-1.794 4-4zM6 34c0 1.103-.898 2-2 2-1.103 0-2-.897-2-2 0-1.104.897-2 2-2 1.102 0 2 .896 2 2zm26-24c0 1.103-.897 2-2 2s-2-.897-2-2c0-1.104.897-2 2-2s2 .896 2 2zm10 10c0 1.103-.898 2-2 2-1.103 0-2-.897-2-2s.897-2 2-2c1.102 0 2 .897 2 2zM58 4c0 1.102-.898 2-2 2-.546 0-1.04-.221-1.401-.576-.004-.004-.005-.01-.009-.014-.004-.004-.01-.005-.014-.01A1.993 1.993 0 0 1 54 4c0-1.104.897-2 2-2 1.102 0 2 .896 2 2zM0 59a1 1 0 0 0 1 1h6a1 1 0 0 0 1-1V48h4v11a1 1 0 0 0 1 1h4a1 1 0 0 0 1-1V40h4v19a1 1 0 0 0 1 1h4a1 1 0 0 0 1-1V36h4v23a1 1 0 0 0 1 1h4.083a1 1 0 0 0 1-1V42H42v17a1 1 0 0 0 1 1h4a1 1 0 0 0 1-1V28h4v31a1 1 0 0 0 1 1h6a1 1 0 1 0 0-2h-5V27a1 1 0 0 0-1-1h-6a1 1 0 0 0-1 1v31h-2V41a1 1 0 0 0-1-1h-5.917a1 1 0 0 0-1 1v17H34V35a1 1 0 0 0-1-1h-6a1 1 0 0 0-1 1v23h-2V39a1 1 0 0 0-1-1h-6a1 1 0 0 0-1 1v19h-2V47a1 1 0 0 0-1-1H7a1 1 0 0 0-1 1v11H1a1 1 0 0 0-1 1z"/></g></g></svg>