<svg xmlns="http://www.w3.org/2000/svg" width="59" height="59" viewBox="0 0 59 59"><g><g><path fill="#fff" d="M54.048 9.905a4.932 4.932 0 0 1-2.508-.685L34.388 26.406c.424.73.671 1.578.671 2.486a4.945 4.945 0 0 1-4.952 4.953 4.946 4.946 0 0 1-4.273-7.454l-3.668-3.655a4.931 4.931 0 0 1-4.977.006l-7.954 7.954a4.946 4.946 0 0 1-4.283 7.436A4.946 4.946 0 0 1 0 33.18a4.946 4.946 0 0 1 4.952-4.953c.907 0 1.754.247 2.484.67l7.954-7.955a4.932 4.932 0 0 1-.67-2.483 4.946 4.946 0 0 1 4.953-4.953 4.946 4.946 0 0 1 4.953 4.953 4.93 4.93 0 0 1-.664 2.474l3.679 3.666a4.937 4.937 0 0 1 4.946.009L49.75 7.411a4.937 4.937 0 0 1-.655-2.46A4.946 4.946 0 0 1 54.048 0 4.946 4.946 0 0 1 59 4.952a4.946 4.946 0 0 1-4.952 4.953zM4.952 30.772a2.406 2.406 0 0 0-2.407 2.408 2.406 2.406 0 0 0 2.407 2.408A2.406 2.406 0 0 0 7.36 33.18a2.406 2.406 0 0 0-2.408-2.408zm14.721-14.721a2.406 2.406 0 0 0-2.408 2.408 2.406 2.406 0 0 0 2.408 2.408 2.406 2.406 0 0 0 2.408-2.408 2.406 2.406 0 0 0-2.408-2.408zm10.434 10.434a2.406 2.406 0 0 0-2.408 2.407 2.406 2.406 0 0 0 2.408 2.409 2.406 2.406 0 0 0 2.408-2.409 2.406 2.406 0 0 0-2.408-2.407zm23.94-23.94a2.406 2.406 0 0 0-2.407 2.407 2.406 2.406 0 0 0 2.408 2.408 2.406 2.406 0 0 0 2.407-2.408 2.406 2.406 0 0 0-2.407-2.408zM3.68 43.006h2.545v13.448H18.4V31.947h2.545v24.508h8.515V39.326h2.545v17.129h20.77v-35.55h2.544v35.55h3.641V59H.039v-2.545h3.64z"/></g></g></svg>