<svg xmlns="http://www.w3.org/2000/svg" width="65" height="57" viewBox="0 0 65 57"><g><g><path fill="#fff" d="M62.833 26.887v-9.68h-29.25v-.034c-.337 0-.67-.157-.88-.448l-5.081-7.046h-.013L22.192 2.15H2.167V54.85h24.916v2.15H0V0h23.308l.322.449v.001l5.105 7.079H65v19.359zm0-17.208H30.288l3.877 5.377h28.668zM42.25 46.244h-5.092c1.627 5.056 6.414 8.605 11.86 8.605 5.77 0 10.46-3.976 11.67-9.894.12-.58.684-.95 1.278-.84.586.119.965.686.846 1.268C61.392 52.331 55.849 57 49.02 57c-5.779 0-10.92-3.408-13.27-8.442v4.14h-2.167v-8.604h8.667zm21.667-15.056v8.604H55.25v-2.151h4.96c-1.915-4.554-6.245-7.528-11.19-7.528-5.572 0-10.716 3.745-12.23 8.903-.167.572-.768.9-1.342.733a1.073 1.073 0 0 1-.738-1.333c1.807-6.156 7.692-10.454 14.31-10.454 5.467 0 10.292 3.07 12.73 7.86v-4.634z"/></g></g></svg>