<svg xmlns="http://www.w3.org/2000/svg" width="59" height="63" viewBox="0 0 59 63"><g><g><path fill="#fff" d="M55.857 44.775a10.583 10.583 0 0 1 3.142 7.55c0 2.853-1.116 5.535-3.142 7.552A10.72 10.72 0 0 1 48.272 63a10.72 10.72 0 0 1-7.585-3.123 10.584 10.584 0 0 1-3.142-7.551c0-1.325.25-2.61.712-3.812L19.695 37.298a10.73 10.73 0 0 1-8.968 4.836C4.812 42.134 0 37.344 0 31.455c0-5.888 4.812-10.678 10.727-10.678 3.75 0 7.051 1.927 8.969 4.836l18.565-11.13a10.576 10.576 0 0 1-.715-3.805C37.546 4.79 42.358 0 48.273 0S59 4.79 59 10.678c0 5.889-4.812 10.679-10.727 10.679-3.802 0-7.14-1.984-9.044-4.961l-18.54 11.116c.488 1.221.766 2.55.766 3.943a10.56 10.56 0 0 1-.768 3.944L39.224 46.6c.418-.65.902-1.265 1.464-1.825 4.182-4.165 10.986-4.165 15.169 0zM39.691 10.678c0 4.71 3.85 8.544 8.582 8.544 4.732 0 8.582-3.833 8.582-8.544 0-4.71-3.85-8.543-8.582-8.543-4.733 0-8.582 3.833-8.582 8.543zM19.31 31.455c0-4.71-3.85-8.543-8.582-8.543-4.732 0-8.582 3.833-8.582 8.543 0 4.71 3.85 8.543 8.582 8.543 4.732 0 8.582-3.833 8.582-8.543zm37.545 20.87c0-2.28-.893-4.427-2.514-6.04a8.575 8.575 0 0 0-6.068-2.498 8.575 8.575 0 0 0-6.068 2.498 8.471 8.471 0 0 0-2.514 6.04 8.47 8.47 0 0 0 2.514 6.042c3.345 3.33 8.79 3.33 12.135 0a8.466 8.466 0 0 0 2.515-6.041z"/></g></g></svg>