<svg xmlns="http://www.w3.org/2000/svg" width="74" height="66" viewBox="0 0 74 66"><g><g><path fill="#fff" d="M69.15 40.536a1.18 1.18 0 1 1-1.361-1.93c1.756-1.24 3.85-3.222 3.85-5.624 0-3.717-5.194-7.596-13.959-10.051-.985 3.298-2.308 6.745-3.927 10.23 1.55 3.37 2.82 6.703 3.775 9.895 2.31-.637 4.43-1.386 6.305-2.236a1.182 1.182 0 0 1 .975 2.152c-1.98.898-4.217 1.687-6.647 2.357a49.48 49.48 0 0 1 .958 4.58c1.21 7.681-.127 13.07-3.767 15.171-1.064.616-2.273.92-3.602.92-3.217 0-7.137-1.78-11.413-5.241a49.275 49.275 0 0 1-3.433-3.07c-5.332 5.202-10.606 8.276-14.79 8.276-1.34 0-2.556-.31-3.614-.92-3.64-2.104-4.978-7.492-3.767-15.173.233-1.476.555-3.007.958-4.58a49.655 49.655 0 0 1-4.443-1.46C3.995 41.041 0 37.187 0 32.982s3.995-8.059 11.248-10.85c1.352-.52 2.79-.994 4.3-1.42-.615-2.39-1.037-4.672-1.246-6.795a1.181 1.181 0 1 1 2.35-.232c.197 2.007.597 4.168 1.18 6.432 3.325-.797 6.948-1.378 10.752-1.724 2.162-3.065 4.414-5.838 6.677-8.247a47.338 47.338 0 0 0-3.379-3.03c-5.154-4.17-9.655-5.67-12.35-4.113-2.078 1.2-2.746 4.006-2.941 6.148a1.181 1.181 0 0 1-2.352-.214c.352-3.87 1.774-6.63 4.113-7.98 3.64-2.103 8.973-.568 15.015 4.322a49.52 49.52 0 0 1 3.543 3.177C42.305 3.144 47.654-.001 51.886-.001c1.34 0 2.556.31 3.614.921 3.64 2.103 4.978 7.491 3.767 15.172a49.549 49.549 0 0 1-.958 4.58c1.563.437 3.05.924 4.443 1.46C70.005 24.923 74 28.777 74 32.982c0 2.703-1.677 5.315-4.85 7.554zM55.393 22.343a70.975 70.975 0 0 0-8.434-1.431 94.673 94.673 0 0 1 5.458 9.468 71.818 71.818 0 0 0 2.976-8.037zm-2.987 13.592a95.265 95.265 0 0 1-5.25 9.079 72.576 72.576 0 0 0 8.082-1.378 71.42 71.42 0 0 0-2.832-7.7zM41.822 58.922c5.154 4.17 9.655 5.669 12.35 4.112 2.693-1.556 3.647-6.206 2.614-12.757a47.165 47.165 0 0 0-.913-4.366c-3.239.758-6.764 1.316-10.453 1.656-2.22 3.146-4.535 5.986-6.859 8.44a47.187 47.187 0 0 0 3.261 2.915zm-4.917-4.602a72.678 72.678 0 0 0 5.428-6.524 93.62 93.62 0 0 1-10.858-.009 71.494 71.494 0 0 0 5.43 6.533zm-17.224 8.677c.694.402 1.513.605 2.433.605 3.179 0 7.466-2.338 12.072-6.585.354-.326.71-.665 1.064-1.011-2.348-2.484-4.657-5.332-6.854-8.452-3.68-.343-7.188-.907-10.418-1.673a47.28 47.28 0 0 0-.912 4.359c-1.033 6.55-.08 11.2 2.615 12.757zm6.988-17.987a94.72 94.72 0 0 1-5.24-9.074 71.362 71.362 0 0 0-2.822 7.686 70.73 70.73 0 0 0 8.062 1.388zM16.18 22.97c-8.68 2.458-13.817 6.314-13.817 10.012 0 3.718 5.193 7.596 13.957 10.051.952-3.186 2.22-6.513 3.765-9.878-1.606-3.47-2.924-6.908-3.905-10.184zm2.284-.594a72.456 72.456 0 0 0 2.958 7.995 94.842 94.842 0 0 1 5.435-9.438 70.619 70.619 0 0 0-8.393 1.443zm7.629 4.304a91.671 91.671 0 0 0-3.4 6.471 90.984 90.984 0 0 0 3.252 6.17c1.2 2.08 2.46 4.081 3.764 5.983a92.893 92.893 0 0 0 14.401.004 91.886 91.886 0 0 0 7.036-12.151 91.595 91.595 0 0 0-3.385-6.44 91.798 91.798 0 0 0-3.833-6.085A93.367 93.367 0 0 0 37 20.38a93.22 93.22 0 0 0-7.102.267 90.391 90.391 0 0 0-3.806 6.034zm10.821-14.842a73.19 73.19 0 0 0-5.243 6.327 94.67 94.67 0 0 1 10.49-.009 71.747 71.747 0 0 0-5.247-6.318zM54.32 2.967c-.694-.401-1.513-.605-2.433-.605-3.18 0-7.466 2.338-12.072 6.585-.417.385-.836.785-1.254 1.197 2.285 2.428 4.532 5.2 6.672 8.232 3.816.34 7.451.915 10.79 1.707.384-1.498.69-2.955.912-4.359 1.032-6.551.08-11.2-2.615-12.757zM42.904 32.982A5.912 5.912 0 0 1 37 38.89a5.912 5.912 0 0 1-5.904-5.908A5.912 5.912 0 0 1 37 27.074a5.913 5.913 0 0 1 5.904 5.908zm-9.447 0A3.548 3.548 0 0 0 37 36.527a3.548 3.548 0 0 0 3.542-3.545A3.548 3.548 0 0 0 37 29.438a3.548 3.548 0 0 0-3.543 3.544z"/></g></g></svg>